<svg xmlns="http://www.w3.org/2000/svg" xmlns:xlink="http://www.w3.org/1999/xlink" style="display:none"><defs><path id="a" d="M0 0h141.732v141.732H0z"/></defs><symbol id="email" viewBox="0 0 512 512"><path d="M480 80H32C14.336 80 0 94.336 0 112v18.208l256 108.416 256-108.448V112c0-17.664-14.336-32-32-32z" data-original="#000000" class="active-path" data-old_color="#000000" fill="#3A3F6D"/><path d="M262.24 270.72c-1.984.864-4.128 1.28-6.24 1.28s-4.256-.416-6.24-1.28L0 164.96V400c0 17.664 14.336 32 32 32h448c17.664 0 32-14.336 32-32V164.96L262.24 270.72z" data-original="#000000" class="active-path" data-old_color="#000000" fill="#3A3F6D"/></symbol><symbol id="home-gray" viewBox="0 0 14 16.05"><title>icon-house</title><path data-name="projects copy" d="M14 5.87v9.62a.54.54 0 0 1-.14.39.49.49 0 0 1-.37.15h-4a.49.49 0 0 1-.37-.15.54.54 0 0 1-.12-.39V9H5v6.48a.54.54 0 0 1-.14.39.49.49 0 0 1-.37.15h-4a.46.46 0 0 1-.34-.12.54.54 0 0 1-.15-.41V5.87a.53.53 0 0 1 .17-.42L6.55.12a.48.48 0 0 1 .63 0l6.62 5.33a.49.49 0 0 1 .2.42z" fill="#c7c7c7"/></symbol><symbol id="home" viewBox="0 0 221.053 221.053"><path d="M218.278 103.775L118.384 7.497c-2.098-2.022-4.889-3.136-7.856-3.136-2.969 0-5.76 1.113-7.857 3.136L2.776 103.775c-3.346 3.224-2.955 5.996-2.425 7.312.531 1.315 2.115 3.605 6.761 3.605H18.36v85.57c0 8.906 7.676 16.43 16.368 16.43H85.36v-58h49v58h51.965c8.72 0 16.035-7.678 16.035-16.43v-85.57h11.581c4.646 0 6.229-2.29 6.761-3.605.53-1.316.922-4.087-2.424-7.312z" data-original="#000000" class="active-path" data-old_color="#000000" fill="#FFF"/></symbol><symbol id="logo" viewBox="0 0 141.732 141.732"><clipPath id="b"><use xlink:href="#a" overflow="visible"/></clipPath><path clip-path="url(#b)" fill="#ED1C24" d="M0 0h141.732v141.732H0z"/><path clip-path="url(#b)" fill="#FFF" d="M103.281 123.886c-.371 0-.881 0-1.299-.42-.422-.42-.422-.928-.422-1.301V109.61c0-.578.01-.828.209-1.201.236-.428.701-.682 1.25-.682.547 0 1.012.254 1.248.678.199.377.209.625.209 1.205v11.621h5.135c.529 0 .799.025 1.094.186.395.228.627.654.627 1.142 0 .486-.232.91-.623 1.137-.299.164-.568.189-1.098.189h-6.33zm-81.72.086c-.548 0-1.014-.254-1.247-.68-.2-.375-.208-.625-.208-1.203v-11.621h-2.639c-.51 0-.786-.018-1.094-.186-.395-.227-.624-.652-.624-1.141 0-.488.229-.912.618-1.137.302-.164.572-.191 1.1-.191h8.191c.527 0 .798.027 1.092.188.394.228.626.652.626 1.141 0 .488-.232.914-.62 1.137-.3.164-.568.189-1.098.189h-2.639v11.621c0 .578-.008.83-.208 1.201-.236.428-.702.682-1.25.682m9.596 0c-.548 0-1.017-.254-1.25-.68-.2-.375-.208-.625-.208-1.203V109.61c0-.578.008-.826.206-1.201.237-.428.704-.682 1.252-.682.546 0 1.012.254 1.246.678.202.377.21.627.21 1.205v12.479c0 .578-.008.83-.208 1.201-.234.428-.702.682-1.248.682m15.572 0c-.794 0-1.136-.609-1.411-1.102l-3.675-6.475-2.321 2.791v2.902c0 .578-.008.828-.208 1.201-.234.428-.702.682-1.25.682-.546 0-1.013-.254-1.248-.68-.2-.375-.208-.625-.208-1.203v-12.479c0-.578.008-.828.206-1.201.237-.428.704-.682 1.25-.682.548 0 1.014.254 1.25.678.2.377.208.627.208 1.205v5.445l5.372-6.517c.382-.461.72-.811 1.296-.811.334 0 .649.117.91.34.338.283.525.66.525 1.064 0 .416-.182.703-.588 1.191l-3.176 3.834 4.149 7.293c.274.479.395.727.408 1.098.015.506-.24.938-.714 1.223-.275.17-.573.203-.775.203m14.418 0c-.795 0-1.137-.609-1.412-1.102l-3.675-6.475-2.321 2.791v2.902c0 .578-.006.828-.206 1.201-.236.428-.704.682-1.25.682-.548 0-1.017-.254-1.25-.68-.2-.375-.208-.625-.208-1.203v-12.479c0-.578.008-.828.208-1.201.235-.428.702-.682 1.25-.682.546 0 1.012.254 1.248.678.202.377.208.627.208 1.205v5.445l5.372-6.517c.384-.461.722-.811 1.296-.811.332 0 .647.117.912.338.338.287.521.664.521 1.066 0 .416-.18.703-.586 1.191l-3.176 3.834 4.152 7.293c.271.479.392.727.405 1.098.015.504-.237.938-.714 1.223-.272.17-.572.203-.774.203m25.2-9.187c1.451 0 2.354-.818 2.354-2.137 0-1.344-.902-2.18-2.354-2.18h-3.205v4.316h3.205zm3.854 9.187c-.793 0-1.135-.609-1.41-1.102l-3.152-5.518h-2.496v4.736c0 .578-.008.828-.207 1.201-.236.428-.701.682-1.25.682s-1.016-.254-1.248-.68c-.201-.377-.211-.625-.211-1.203v-12.555c0-.371 0-.881.422-1.299.42-.422.928-.422 1.299-.422h4.574c3.047 0 5.094 1.934 5.094 4.813 0 2.043-1.09 3.619-2.936 4.279l2.604 4.545c.273.479.395.727.408 1.098.014.504-.24.938-.715 1.223a1.483 1.483 0 0 1-.776.202m6.109 0c-.547 0-1.016-.254-1.25-.68-.199-.373-.207-.625-.207-1.203V109.61c0-.578.008-.828.207-1.201.236-.428.703-.682 1.25-.682s1.014.254 1.248.678c.201.379.209.627.209 1.205v12.479c0 .578-.008.828-.207 1.201-.234.428-.701.682-1.25.682m25.178-5.767l-2.078-5.684-2.082 5.684h4.16zm3.06 5.767c-.303 0-.586-.1-.822-.293-.279-.225-.398-.48-.596-1.012l-.705-1.897h-6.035l-.707 1.897c-.195.531-.313.787-.598 1.016a1.28 1.28 0 0 1-.82.289c-.404 0-.803-.162-1.062-.436-.598-.615-.342-1.301-.135-1.85l4.748-12.643c.168-.463.305-.691.539-.912.287-.275.623-.404 1.055-.404.426 0 .762.129 1.053.404.234.221.369.451.537.914l4.75 12.641c.205.549.463 1.234-.141 1.854-.258.27-.654.432-1.061.432m-53.709.045c-3.382 0-5.836-2.373-5.836-5.641v-8.766c0-.578.008-.828.208-1.201.236-.428.702-.682 1.25-.682.546 0 1.014.254 1.248.678.202.377.21.627.21 1.205v8.658c0 1.906 1.118 3.094 2.92 3.094 1.799 0 2.92-1.188 2.92-3.094v-8.658c0-.578.008-.826.207-1.201.236-.428.705-.682 1.25-.682.547 0 1.016.254 1.248.678.201.377.209.627.209 1.205v8.766c0 3.268-2.453 5.641-5.834 5.641M99.535 83.439l-1.379 7.127c-.273 1.422-1.684 2.584-3.129 2.584H46.706c-1.446 0-2.857-1.162-3.13-2.584l-1.592-8.232m0 0l-7.646-39.025c3.687-1.606 7.946.945 8.448 5.078a7.617 7.617 0 0 1-.456 3.664 7.54 7.54 0 0 1 8.084 6.6c.5 4.129-2.432 7.889-6.563 8.398-1.336.16-2.107-.027-3.258-.51.008.4.046.797.092 1.197.967 7.841 6.126 11.191 14.03 11.191 6.92 0 14.244-4.361 14.244-12.257 0-.537-.01-1.066-.074-1.596a7.612 7.612 0 0 1-4.346 1.363c-4.156 0-7.536-3.377-7.536-7.547a7.542 7.542 0 0 1 7.22-7.535 7.533 7.533 0 0 1-.898-3.574c0-4.166 3.376-7.545 7.536-7.545a7.544 7.544 0 0 1 7.545 7.545 7.507 7.507 0 0 1-.91 3.574c4.02.168 7.231 3.48 7.231 7.535a7.547 7.547 0 0 1-7.545 7.547 7.51 7.51 0 0 1-4.326-1.373 15.004 15.004 0 0 0-.084 1.606c0 7.896 7 12.257 14.293 12.257 7.9 0 13.014-3.424 13.98-11.255.045-.391.094-.781.113-1.162-1.154.457-1.924.643-3.225.475-4.139-.502-7.07-4.27-6.57-8.399.502-4.029 4.086-6.926 8.084-6.6a7.523 7.523 0 0 1-.455-3.658c.51-4.139 4.316-6.404 8.4-5.078l-7.859 40.189"/></symbol><symbol id="loupe" viewBox="0 0 515.558 515.558"><path d="M378.344 332.78c25.37-34.645 40.545-77.2 40.545-123.333C418.889 93.963 324.928.002 209.444.002S0 93.963 0 209.447s93.961 209.445 209.445 209.445c46.133 0 88.692-15.177 123.337-40.547l137.212 137.212 45.564-45.564L378.344 332.78zm-168.899 21.667c-79.958 0-145-65.042-145-145s65.042-145 145-145 145 65.042 145 145-65.043 145-145 145z" data-original="#000000" class="active-path" data-old_color="#000000" fill="#4F4F4F"/></symbol><symbol id="menu-icon" viewBox="0 0 40.7 33.2"><path d="M0 0h40.7v7.7H0zm0 25.5h40.7v7.7H0zm0-12.7h40.7v7.7H0z"/></symbol><symbol id="phone" viewBox="0 0 348.077 348.077"><path d="M72.994 340.273l53.761-53.755c10.664-10.707 10.34-28.438-.744-39.518l-27.076-27.082a792.327 792.327 0 0 1 2.973-5.344c9.476-17.102 22.464-40.509 47.113-65.14 24.701-24.704 48.144-37.704 65.257-47.209 1.813-1.003 3.561-1.964 5.221-2.913l18.149 18.176 8.947 8.936c11.1 11.097 28.826 11.403 39.521.721l53.767-53.755c10.68-10.682 10.356-28.421-.744-39.518l-15.237-15.15-.411.414c-6.482-5.08-13.958-9.325-22.02-12.484-7.674-2.912-14.997-4.725-22.335-5.554C220.292-6 166.513 20.89 93.536 93.866-7.332 194.741.288 276.033.66 279.54c.913 7.638 2.738 14.958 5.627 22.397 3.122 7.992 7.361 15.463 12.43 21.941l-.294.331 15.029 15.348c11.098 11.074 28.83 11.393 39.542.716z" data-original="#000000" class="active-path" data-old_color="#000000" fill="#3A3F6D"/></symbol><symbol id="placeholder" viewBox="-119 -21 682 682.66669"><path d="M216.21 0C93.548 0-6.25 99.797-6.25 222.46-6.25 376.638 216.43 640 216.43 640s222.242-270.945 222.242-417.54C438.672 99.798 338.879 0 216.21 0zm67.122 287.598c-18.508 18.504-42.812 27.757-67.121 27.757-24.305 0-48.617-9.253-67.117-27.757-37.012-37.008-37.012-97.227 0-134.239 17.922-17.93 41.761-27.804 67.117-27.804 25.355 0 49.191 9.879 67.121 27.804 37.012 37.012 37.012 97.23 0 134.239zm0 0" data-original="#000000" class="active-path" data-old_color="#000000" fill="#3A3F6D"/></symbol></svg>